<mxfile host="app.diagrams.net" agent="Mozilla/5.0 (Windows NT 10.0; Win64; x64) AppleWebKit/537.36 (KHTML, like Gecko) Chrome/136.0.0.0 Safari/537.36" version="27.0.8">
  <diagram name="Face Attendance Flowchart" id="flowchart-1">
    <mxGraphModel dx="1042" dy="527" grid="1" gridSize="10" guides="1" tooltips="1" connect="1" arrows="1" fold="1" page="1" pageScale="1" pageWidth="827" pageHeight="1169" math="0" shadow="0">
      <root>
        <mxCell id="0" />
        <mxCell id="1" parent="0" />
        <mxCell id="start" value="Start" style="ellipse;whiteSpace=wrap;html=1;" parent="1" vertex="1">
          <mxGeometry x="60" y="40" width="100" height="40" as="geometry" />
        </mxCell>
        <mxCell id="load" value="Load media file" style="rounded=1;whiteSpace=wrap;html=1;" parent="1" vertex="1">
          <mxGeometry x="60" y="100" width="160" height="40" as="geometry" />
        </mxCell>
        <mxCell id="detect" value="Detect face using OpenCV" style="rounded=1;whiteSpace=wrap;html=1;" parent="1" vertex="1">
          <mxGeometry x="60" y="160" width="180" height="40" as="geometry" />
        </mxCell>
        <mxCell id="liveliness" value="Is it a real person?" style="rhombus;whiteSpace=wrap;html=1;" parent="1" vertex="1">
          <mxGeometry x="60" y="220" width="160" height="60" as="geometry" />
        </mxCell>
        <mxCell id="discard" value="Discard and log" style="rounded=1;whiteSpace=wrap;html=1;" parent="1" vertex="1">
          <mxGeometry x="250" y="220" width="140" height="40" as="geometry" />
        </mxCell>
        <mxCell id="extract" value="Extract face encoding" style="rounded=1;whiteSpace=wrap;html=1;" parent="1" vertex="1">
          <mxGeometry x="60" y="300" width="180" height="40" as="geometry" />
        </mxCell>
        <mxCell id="compare" value="Compare with known encodings" style="rounded=1;whiteSpace=wrap;html=1;" parent="1" vertex="1">
          <mxGeometry x="60" y="360" width="200" height="40" as="geometry" />
        </mxCell>
        <mxCell id="match" value="Match found?" style="rhombus;whiteSpace=wrap;html=1;" parent="1" vertex="1">
          <mxGeometry x="60" y="420" width="120" height="60" as="geometry" />
        </mxCell>
        <mxCell id="record" value="Record attendance" style="rounded=1;whiteSpace=wrap;html=1;" parent="1" vertex="1">
          <mxGeometry x="60" y="500" width="160" height="40" as="geometry" />
        </mxCell>
        <mxCell id="unrecog" value="Log unrecognized face" style="rounded=1;whiteSpace=wrap;html=1;" parent="1" vertex="1">
          <mxGeometry x="250" y="420" width="180" height="40" as="geometry" />
        </mxCell>
        <mxCell id="end" value="End" style="ellipse;whiteSpace=wrap;html=1;" parent="1" vertex="1">
          <mxGeometry x="60" y="560" width="100" height="40" as="geometry" />
        </mxCell>
        <mxCell id="c1" style="endArrow=block;" parent="1" source="start" target="load" edge="1">
          <mxGeometry relative="1" as="geometry" />
        </mxCell>
        <mxCell id="c2" style="endArrow=block;" parent="1" source="load" target="detect" edge="1">
          <mxGeometry relative="1" as="geometry" />
        </mxCell>
        <mxCell id="c3" style="endArrow=block;" parent="1" source="detect" target="liveliness" edge="1">
          <mxGeometry relative="1" as="geometry" />
        </mxCell>
        <mxCell id="c4" style="endArrow=block;" parent="1" source="liveliness" target="discard" edge="1">
          <mxGeometry x="0.5" relative="1" as="geometry" />
        </mxCell>
        <mxCell id="c5" style="endArrow=block;" parent="1" source="liveliness" target="extract" edge="1">
          <mxGeometry relative="1" as="geometry" />
        </mxCell>
        <mxCell id="c6" style="endArrow=block;" parent="1" source="extract" target="compare" edge="1">
          <mxGeometry relative="1" as="geometry" />
        </mxCell>
        <mxCell id="c7" style="endArrow=block;" parent="1" source="compare" target="match" edge="1">
          <mxGeometry relative="1" as="geometry" />
        </mxCell>
        <mxCell id="c8" style="endArrow=block;" parent="1" source="match" target="record" edge="1">
          <mxGeometry relative="1" as="geometry" />
        </mxCell>
        <mxCell id="c9" style="endArrow=block;" parent="1" source="match" target="unrecog" edge="1">
          <mxGeometry relative="1" as="geometry" />
        </mxCell>
        <mxCell id="c10" style="endArrow=block;" parent="1" source="record" target="end" edge="1">
          <mxGeometry relative="1" as="geometry" />
        </mxCell>
      </root>
    </mxGraphModel>
  </diagram>
</mxfile>
